<svg preserveAspectRatio="none" overflow="visible" style="display: block;" width="870" height="351.014" viewBox="0 0 870 351.014" fill="none" xmlns="http://www.w3.org/2000/svg">
<path id="Union" d="M543.652 1.46572C585.62 -2.37022 819.152 0.865323 850.6 16.6435C857.75 20.2378 861.621 29.1097 863.92 36.4149C877.747 80.3533 865.323 186.41 853.136 232.319C849.333 246.403 843.974 260.02 837.145 272.912C822.364 300.688 799.102 319.458 768.113 330.449C738.029 341.119 645.886 344.963 627.939 311.037C613.557 283.845 612.357 224.848 605.028 192.124C601.734 177.417 604.729 122.606 576.491 128.946C561.463 133.112 558.972 166.017 556.654 180.168C551.446 211.971 547.494 244.624 533.65 274.367C516.186 315.728 492.103 327.251 451.979 342.767C368.144 371.034 303.086 323.929 278.913 242.808C267.316 203.891 265.363 175.681 261.249 135.253C214.586 137.977 166.533 135.523 118.688 142.399C119.748 147.249 120.724 152.116 121.611 157C128.962 198.304 97.3669 209.302 63.4932 205.433C48.5306 203.725 27.4504 202.679 15.3428 192.563C2.39178 181.745 3.10891 153.89 1.14647 138.252C-1.74562 99.3154 -2.74093 41.5003 44.0449 28.5829C107.44 13.1511 174.136 12.3128 239.104 9.65127C340.678 5.4925 442.05 6.75165 543.652 1.46572ZM821.896 56.4452C751.404 49.2244 688.895 44.5417 617.923 45.8817C591.847 46.3752 562.284 44.5205 536.467 47.0907C481.927 50.4789 77.7445 50.0711 52.7021 75.4716C43.1181 85.1934 44.6736 108.142 45.4258 120.615C46.1915 133.316 47.119 146.186 48.9209 158.786C57.511 159.749 67.4589 161.108 75.9629 161.62C68.8873 118.919 74.5663 101.502 123.536 96.3095C174.262 90.9289 227.204 89.8965 278.153 90.0351C283.37 90.1635 297.136 98.5315 301.428 101.675C308.219 112.536 304.812 133.431 305.951 146.582C312.797 225.594 343.046 343.966 451.195 294.595C470.608 285.839 477.644 282.017 488.682 263.869C525.806 203.01 489.867 61.6201 604.145 86.7128C615.473 89.2003 632.702 107.214 636.115 117.788C652.869 169.697 653.823 233.088 665.778 286.348C723.457 304.284 792.252 291.979 808.101 225.642C820.611 173.288 828.267 109.947 821.896 56.4452ZM433.87 98.6806C452.31 97.0313 462.365 106.142 464.363 124.448C469.427 170.823 468.237 244.521 426.835 273.402C418.47 275.543 408.052 275.337 402.19 268.14C389.143 251.726 410.607 229.597 415.079 213.523C420.464 197.076 420.327 179.349 422.656 162.529C425.837 139.549 414.129 114.351 433.87 98.6806ZM773.728 100.029C783.213 101.891 790.244 104.073 793.802 114.556C800.149 133.698 798.355 160.952 795.361 181.045C791.205 208.957 783.47 262.288 754.223 272.988C706.544 268.623 756.233 190.842 754.835 159.515C753.787 136.012 751.054 109.999 773.728 100.029Z" fill="black"/>
</svg>
