<?xml version="1.0" encoding="UTF-8"?>
<svg id="Layer_2" data-name="Layer 2" xmlns="http://www.w3.org/2000/svg" viewBox="0 0 929.25 480.74">
  <defs>
    <style>
      path, polygon, rect {
        fill: #6366f1;
      }

      .cls-1 {
        fill: #ffebd6;
      }

      .cls-2 {
        fill: #6366f1;
      }
    </style>
  </defs>
  <g id="Layer_1-2" data-name="Layer 1">
    <g>
      <path d="M709.78,30.66l-143.05,91.08c15.29,2.54,30.1,6.22,44.51,11.98,10.56,4.22,18.52,12.47,30.45,12.88,2.66.09,21.18-.02,22.25-.35,2.77-.88,3.23-5.69,6.93-7.61,4.13-2.14,32.92-7.87,38.93-8.49,9.29-.96,30.79,2.12,38.36-.48,3.57-1.23,2.9-6.84,8.51-7.93,13.81-2.67,29.45,1.9,43.07,2.16,12.63.25,24.59-.29,36.98.02,16,.4,50.37-4.17,61.72,6.04,17.9,16.11,28.47,71.92,29.84,95.48,3.3,56.74-.95,117.36-25.07,169.25-9.33-1.11-18.97,2.04-27.48,2.49-21.82,1.15-55.6-.2-77.92-2.18-36.8-3.26-44.1-19.72-58.57-50.44l-60.19-1.29c-7.28-2.2-10.82-19.44-11.87-26.12-1.24-1.05-29.11,2.13-32.16,3.41-4.73,1.99-20.02,17.95-26.54,22.76-18.77,13.82-51.58,33.54-72.99,42.04-13.89,5.51-30.24,7.3-43.11,12.34-11.5,4.5-19.39,14.68-33.49,15.85-15.84,1.31-44-6.76-61.62-8.23-21.26-1.77-42.45-.87-63.52-.12-16.9-9.19-30.9-21.53-49.05-29.04-17.73-7.33-38.15-11.11-56.51-15.78-7.68,18.69-32.7,19.07-44.47,4.26-5.7,1.51-7.84,8.3-11.35,10.78-24.16,17.1-62.45,33.65-84.04,51.58-8.31,6.9-17.12,21.83-26.81,30.71-6.22,5.7-29.52,25.22-37.06,22.8-9.58-3.07-15.25-30.47-24.41-37.51-.74-3.97,17.86-16.29,21.78-18.83,8.41-5.45,24.08-14.75,33.03-18.32,8.51-3.4,19.5-3.68,25.9-6.96,9.12-4.69,26.31-21.71,36.76-28.97,14.02-9.75,29.25-17.47,43.26-26.58,11.22-7.29,21.29-18.33,34.21-22.3-5.35-7.3-18.28-2.99-18.59-15.28l19.5-93.71c23.24-26.99,53.33-46.26,77.2-72.76,15.12-16.79,25.64-38.09,45.3-49.2,17.86-10.1,56.62-24.19,76.78-30.03,13.66-3.95,17.83-5.79,31.87-.92,23.84,8.26,51.55,22.49,76.59,32.27,9.4,3.67,16.97,10.94,27.04,11.79,47.48-27.72,94.22-57.68,140.64-87.42,12.63-8.09,17.09-18.41,34.01-15.18,12.57,2.4,11.85,22.34,4.48,30.06ZM401,219.02c95.68-62.29,197.53-118.67,290.81-184.75,7.84-5.55,23.11-12.55,17.66-23.46l-10.13-4.13-425.34,265.05.35-3.77,78.75-51.65c-19.69,2.09-34.07,19.61-52.01,29.1-6.6,3.49-30.34,11.42-31.67,12.49-.78.63-10.29,15.93-10.76,16.98-2.83,6.35,8.25-1.97,5.13,3.06l-104.89,71.92c-1.1,7.89,5.26,17.89,14.01,16.12,2.5-.51,35.99-23.32,39.47-26.46,18.83-17,11.85-24.31,43.65-32.35,9.24-2.33,7.25.52,16.46-4.51,42.62-23.27,82.38-54.18,124.53-78.5l3.98-5.14ZM297.66,186.49c2.03-7.84-1.48-22.99,0-31.85,8.16-.23,4.69,13.75,14.36,14.38l-4.08-18.48,9.24,12.31c3.16-3.19-2.61-11.97,5.1-10.27,4.35,18.92,9.16,26.91,29.81,24.65,21.81-2.38,34.33-30.7,36.96-30.77,5.72-.16-.94,14.29-1.12,17.49-.28,4.82.91,8.79,2.18,13.27l5.7-19.94,6.59-4.69-6.13,28.75c7.71-3.65,2.23-22.28,12.29-22.59l-5.14,26.69,107.83-68.83c-9.85-2.51-19.94-5.07-28.8-10.29-2.65-1.57-5.18.37-4.04-5.1l38.36,12.06,4.78-4.86c-12.64-4.7-26.16-9.39-38.39-15.06-15.36-7.12-51.72-30.27-65.39-31.24-12.38-.88-63.01,17.77-76.94,23.72-10.36,4.42-21.05,10.1-28.78,18.47-.32,1.57,1.89,1.26,3.02.98,28.82-7.18,87.09-49.05,116.01-29.67,1.6,1.07,3.87,3.06,4.19,5.03l-8.2,2.05,6.14,6.18c-9.05-.08-15.71-3-25.17-1.55-12.14,1.86-26.85,10.84-38.93,14.47-39.81,11.95-54.62,8.2-87.9,37.4-12.1,10.61-22.84,24.16-34.86,34.98-12.21,10.99-45.27,30.76-48.8,45.69-6.44,27.19-6.64,58.34-14.99,85.73l3.48,4.89,19.2.27-10.25-3.05c28.2-10.65,34.99-48.92,30.69-75.92-1.18-7.42-9.01-11.46-8.09-19.62l12.3,10.25c-5.99-15.54-3.44-27.22,4.14-4.11l3.03-10.24,5.17,16.43c6.65,6.6,52.93-28.27,55.45-38.02ZM603.67,136.18l-43.17-11.49-67.72,44.32,110.89-32.83ZM781.7,312.3c-.41-31.33,2.86-63.68.63-94.96-1.14-16.01-10.8-73.68-21.5-83.29-3.09-2.78-2.49-1.64-5.12,1.05,9.26,27.91,16.73,59.09,18.3,88.69.2,3.74.49,6.46-2.96,8.91l-17.46-94.51-6.18,1.06c6.42,30.52,14.04,62.2,11.3,93.47l-15.52-94.39-8.08-.11c9.31,31.09,13.36,64.02,12.3,96.54l-15.34-94.54c-1.36-2.35-10.79-4.29-9.21.97,2.3,7.67,5.96,14.39,7.59,23.25,3.64,19.81,3.52,40.21,6.71,60.04-5.97.9-3.62-1.19-4.08-5.11-1.52-13.02-7.4-69.71-13.43-77-1.83-2.21-5.42-3.76-7.16-1.06,4.16,6.53,17.56,83.21,11.33,83.21l-15.18-83.06-8.4-.21c9.21,25.27,15.8,52.04,14.32,79.13l-16.43-78.07-3.77,2.73c8.6,20.55,9.97,43.13,10.96,65.09l-15.35-66.44-6.19-1.37c8.57,19.97,6.46,40.12,8.23,60.58,3.4,39.51,8.15,76.95-.64,116.52-.73,3.27-6.37,17.3-5.54,18.07,6.77,6.23,10.41-15.36,10.28-18.48,7.93-8.36-.8,17.8-.01,18.48l6.19-1.35,2.03-13.03c9.07-2.07-.47,11.99,2.05,14.38l7.96-.24,2.32-10,2.04,10.25c6.19,2.61,4.64-8.32,7.18-8.23l1.03,8.26,7.92-.31,2.37-9.97,2.04,8.22h6.14s2.09-12.33,2.09-12.33l2.04,12.32,5.99-.14,2.22-14.26c8.38-1.42,1.14,8.01,2.06,12.33l8.18-10.26,2.05,10.26c1.34-3.17,1.4-14.91,2.5-16.12.36-.4,7.7-1.79,9.19-4.97ZM507.15,232.72c2.73.83,5.41,1.38,8.11.01l-.88,20.73c-13.61,4.02-21.27,25.13-32.56,34.05-8.73,6.9-37.13,20.83-48.51,26.46-7.64,3.78-16.29,4.52-22.92,10.1l2.28,25.75h-12.3c-1.54-8.2,4.61.38,7.25-4,1.49-4.9,3-13.96-3.13-16.53l-2.05,16.42-2.09-20.52c-15.16-2.43-42.64-3.5-56.18,4.4-5.24,3.06-.73,9.25-7.47,7.92l-1.05-6.21c-32.13,7.84-58.41-34-91.37-11.25l26.7,7.19-6.17,28.74c22.46,3.8,46.38,12.73,66.76,22.57l7.18-8.16-2.03,12.3c5.08-1.04.59-12.39,8.18-10.25l.24,14.15,98.36,6.36c-2.44-6.17-5.35-12.87-2.16-19.3,5.78-7.71,12.25,13.47,14.95,17.86,1.36,2.21,3.65,9.01,6.7,7.61,2.4-1.1,9.58-14.87,10.64-18.13,1.44-4.46,2.95-22.95,5.81-22.91l6.3,20.63c37.46-2.83,72.28-18.01,103.03-38.68,9.72-6.54,33.26-22.73,41.02-29.68.47-.42-1.39-3.31.48-4.64,3.61-2.58,24.04-10.34,29.34-11.93,9.87-2.96,20.06-4.35,30.22-5.72l.11-8.08c-33.3,4.99-59.37,24.08-90.33,34.93-.98-4.63,2.21-4.64,5.03-6.24,20.97-11.92,51.11-25.61,74.6-30.17,3.57-.69,7.13-.7,10.73-.58v-6.15c-4.69-4.9-47.64,12.34-54.85,16.02-10.27,5.23-19.52,17.47-33.48,16.83l30.69-19.62c18.18-6.06,38.1-20.88,57.61-15.29.87-5.35-.92-4.26-5.17-4.19-20.75.33-42.33,6.7-60.51,16.52-1.15-5.47,1.37-3.55,4.03-5.11,18.52-10.87,40.69-17.38,61.65-13.38l-2.05-78.07c-7.66,1.59-18.04,5.11-24.62-1.04l24.63-2.03c-4.97-6.36-11.69-1.2-17.47-1.05-12.08.32-22.53.58-33.85-4.12.65-5.66,9.96.03,11.28.03h38v-6.16c-13.71,3.71-36.25,8.09-47.99-1.93-2.42-2.07-.35-9.08-9.51-8.38-.48-3.85,4.07-1.44,6.22-1.1,17.45,2.75,31.26,4.97,49.22,1.11l-2.08-10.28c-11.16,1.92-24.64,3.58-35.92,4.31-38.48,2.49-72.41,8.1-110.33,18.9-22.09,6.29-44.16,17.72-67.32,22.04l23.66,18.41c2.46,2.29,14.92,16.76,15.35,18.54-4.47-1.36-7.55-4.55-12.31-4.1l-2.04,41.08c9.55-8.45,17.46-24.06,14.36-36.98ZM784.39,360.09c9.65-33.57,9.49-70.9,8.33-105.88-.59-17.93-1.68-41.75-4.47-59.22-1.77-11.08-5.18-21.7-8.96-32.15-2.71.03,8.81,45.73,9.21,50.39,4.08,47.37-.79,93.4-5.89,139.94-.25,2.26-1.84,7.41,1.79,6.92ZM685.83,164.94l-45.2,1.01c11.21,6.58,25.77,6.63,38.11,3.17,2.81-.79,6.38-.24,7.1-4.18ZM815.2,189.56c-5.27,3.8-9.56-15.49-10.27-18.47-5.48,2.72-1.82,15.64-7.19,18.46s-.68-9.01-5.08-8.19l6.16,112.99,8.21-34.93h6.13s4.15,20.54,4.15,20.54l6.16-22.58c5.02-.66,3.25.03,4.29,2.86,1.92,5.23,3.02,12.11,3.92,17.68,6.37-3.07,3.35-12.87,6.17-18.48,5.25-5.02,5.22,13.38,6.15,14.38,7.73,1.63,2.01-8.28,5.08-12.36,2.12-2.5,2.11-2.37,4.14.04,4.27,5.06,2.53,14.46,5.17,20.53l4.09-22.58c4.38-5.18,11.8,19.48,10.28,22.58l4.1-20.53c7.61,0,8.53,10.8,10.28,16.41,4.02-.25,1.05-17.4,7.13-14.35,5.89,4.13.11,13.83,7.2,16.42l5.16-18.45,5.11,14.33,2.1-12.34,6.12,2.07c1.32-10.82-1.61-80.92-9.23-84.23l-6.15,12.28-5.16-14.33-5.11,12.27-7.21-14.33-5.11,12.27-5.16-12.27-7.14,8.23-4.13-8.26c-2.47.09.28,14.81-7.16,12.34l-3.11-12.34-3.1,10.29c-7.81,1.53-3.03-9.64-10.23-8.22-.42,2.44-.53,11.86-5.13,10.29-2.81-.96-.67-11.86-5.13-12.33l-5.16,14.33-9.22-16.39-2.09,14.36ZM320.24,181.37c-11.3-2.07-9.13,5.44-13.5,12.19-4.62,7.13-10.47,10.09-15.24,16.55,5.88-.83,11.43-6.2,15.47-10.19,1.69-1.66,14.93-17.16,13.27-18.55ZM381.86,191.65c-14.98-1.95-29.26,4.25-43.84.2-17.08,26.06-42.95,46.04-73.22,54.22,2.07,2.23,3.82,4.81,7.23,5.17,12.38,1.31,48.1-26.45,60.08-33.33l.47-11.89c6.47-2.32,3.06,5.16,4.15,6.09,3.06,2.61,43.64-9.97,45.13-20.46ZM441.42,216.27l-5.11-12.27-9.25,7.15,14.36,5.11ZM285.33,214.25l-36.97,20.51c14.2-2.67,27.09-9.98,36.97-20.51ZM474.29,284.07c3,2.98,12.21-12.04,13.02-14.69,3.45-11.34-.64-23.92,2.92-35.39-1.5-8.05-27.1-14.96-34.42-17.69,5.67,7.48,29.08,26.53,30.49,34.37,1.62,9.01-8.36,25.1-12.01,33.39ZM464.01,245.04c5.84-5.09-24.28-9.39-27.29-10.69-5.52-2.37-9.58-7.66-13.72-8.91-7.92-2.4-23.3-1.24-28.8,6.26,6.77,1.32,10.73-5.32,18.56-4.27,14.11,1.89,32.33,24.31,51.25,17.61ZM215.5,302.56c4.81,4.4,18.64-20.4,20.07-24.07,3.01-7.71,7.96-26.75,8.51-34.74.27-3.97.92-6.32-2.91-8.93-3.86,2.5-2.81,5.5-3.15,9.14-2.26,24.22-2.89,41.37-22.53,58.6ZM459.55,259.78c-.54-.47-10.47-2.05-14-3.46-7.99-3.19-30.03-16.01-34.45-17.07-6.45-1.55-21.2,4.99-29.98.22-28.55,22.41-71.8,40.4-98.53,63.46-2.12,1.83-4.32,1.98-3.41,5.81,15.81-1.29,30.07,15.61,44.44,16.31,10.93.53,28.97-6.98,40.81-8.06,28.14-2.58,37.19,5.5,66.78-7.16,11.09-4.75,30.4-18.7,32.44-31.28.32-1.96-3.37-18.12-4.09-18.75ZM513.3,238.9h-4.09s0,10.26,0,10.26c4.64-1.25,4.38-6.35,4.08-10.26ZM244.28,286.14c.33.41,7.09-3.57,8.28-5.05.81-1.02,11.53-21.86,11.85-23.12.95-3.67.04-4.53-2.68-6.71l-8.19,6.15-9.26,28.73ZM689.93,292.32l-18.55,3-18.4,7.24c10.94.97,22.18-2,32.45-5.61,3.32-1.17,5.48,1.06,4.49-4.63ZM689.94,300.55c-3.83-.21-9.04-.6-10.27,4.07,3.83.21,9.04.6,10.27-4.07ZM264.8,331.36c-14.87,1.76-25.68-17.57-36.98-1.04-11.88,17.37,14.59,36.41,31,24.37l5.99-23.32ZM751.47,343.72l-6.06.96,16.4,27.75-10.33-28.71ZM152.88,356.07c-15.85,9.79-29.14,23.03-44.35,33.65-5.69,3.97-28.22,12.87-26.51,20.7.35,1.61,3.42,4.37,5.11,1.05l70.8-48.26-5.05-7.14ZM776.19,374.5l-12.3,1.01,9.2,7.19,3.1-8.2ZM73.79,405.33c-22.2,5.06-40.95,19.39-59.55,31.84l17.46-7.19c1.72,7.63-14.45,14.28-21.57,16.46-.48,2.2-.57,5.45,3.04,4.05,7.43-2.88,18.11-13.66,27.76-14.34-6.28,6.9-16.41,10.87-24.1,15.89-2.88,1.88-4.4,4.69-2.59,6.68,2.19,2.42,25.23-17.18,30.8-16.41-6.24,7.34-15.19,11.68-22.81,17.28-1.09.8-7.46,2.17-3.88,5.29,1.76,1.53,32.53-22.61,34.9-20.52l-24.63,21.56,10.24.99-16.4,8.22c7.22,3.27,14.46-5.08,20.31-9.43,13.69-10.17,25.15-22.78,37.17-34.74l-4.08-.96-.27-5.88-5.89-.34,8.21-8.18-10.25,4.09,4.08-6.14-8.18,2.03,10.25-10.25Z"/>
      <path class="cls-1" d="M507.15,232.72c-.43-1.78-12.89-16.26-15.35-18.54l-23.66-18.41c23.16-4.32,45.23-15.75,67.32-22.04,37.92-10.8,71.84-16.41,110.33-18.9,11.28-.73,24.76-2.39,35.92-4.31l2.08,10.28c-17.97,3.85-31.77,1.64-49.22-1.11-2.16-.34-6.7-2.75-6.22,1.1,9.16-.71,7.08,6.31,9.51,8.38,11.74,10.01,34.27,5.64,47.97,1.93v6.16s-37.98,0-37.98,0c-1.32,0-10.63-5.69-11.28-.03,11.32,4.71,21.77,4.45,33.85,4.12,5.78-.16,12.5-5.31,17.47,1.05l-24.63,2.03c6.58,6.15,16.96,2.64,24.62,1.04l2.05,78.07c-20.96-4-43.13,2.51-61.65,13.38-2.67,1.56-5.18-.36-4.03,5.11,18.18-9.82,39.77-16.19,60.51-16.52,4.24-.07,6.04-1.16,5.17,4.19-19.51-5.59-39.43,9.24-57.61,15.29l-30.69,19.62c13.96.64,23.2-11.59,33.48-16.83,7.21-3.67,50.16-20.91,54.85-16.02v6.15c-3.59-.12-7.16-.11-10.72.58-23.5,4.55-53.63,18.25-74.6,30.17-2.83,1.61-6.01,1.62-5.03,6.24,30.96-10.85,57.03-29.94,90.33-34.93l-.11,8.08c-10.16,1.37-20.36,2.76-30.22,5.72-5.3,1.59-25.74,9.35-29.34,11.93-1.86,1.34,0,4.22-.48,4.64-7.75,6.95-31.3,23.14-41.02,29.68-30.74,20.67-65.57,35.85-103.03,38.68l-6.3-20.63c-2.87-.04-4.37,18.45-5.81,22.91-1.06,3.27-8.24,17.03-10.64,18.13-3.05,1.4-5.34-5.4-6.7-7.61-2.7-4.39-9.18-25.57-14.95-17.86-3.19,6.44-.28,13.13,2.16,19.3l-98.36-6.36-.24-14.15c-7.59-2.13-3.1,9.21-8.18,10.25l2.03-12.3-7.18,8.16c-20.38-9.84-44.3-18.77-66.76-22.57l6.17-28.74-26.7-7.19c32.96-22.74,59.25,19.09,91.37,11.25l1.05,6.21c6.74,1.32,2.23-4.87,7.47-7.92,13.54-7.9,41.02-6.83,56.18-4.4l2.09,20.52,2.05-16.42c6.13,2.57,4.62,11.63,3.13,16.53-2.65,4.38-8.79-4.2-7.25,4h12.3s-2.28-25.75-2.28-25.75c6.62-5.58,15.28-6.33,22.92-10.1,11.38-5.63,39.78-19.56,48.51-26.46,11.29-8.92,18.96-30.03,32.56-34.05l.88-20.73c-2.7,1.37-5.38.82-8.11-.01,3.1,12.92-4.81,28.53-14.36,36.98l2.04-41.08c4.77-.45,7.84,2.74,12.31,4.1ZM459.88,358.06c-3.49-.09-4.44-1.15-3.94,2.89.7,5.55,1.24,11.1,1.93,16.64.35,2.82,1.46,6.51,4.08,3.06l-2.07-22.58Z"/>
      <path class="cls-1" d="M297.66,186.49c-2.52,9.75-48.8,44.62-55.45,38.02l-5.17-16.43-3.03,10.24c-7.58-23.11-10.13-11.43-4.14,4.11l-12.3-10.25c-.92,8.16,6.91,12.2,8.09,19.62,4.31,27-2.49,65.27-30.69,75.92l10.25,3.05-19.2-.27-3.48-4.89c8.35-27.39,8.55-58.54,14.99-85.73,3.54-14.93,36.59-34.7,48.8-45.69,12.03-10.82,22.77-24.37,34.86-34.98,33.28-29.2,48.09-25.45,87.9-37.4,12.08-3.62,26.79-12.61,38.93-14.47,9.46-1.45,16.13,1.47,25.17,1.55l-6.14-6.18,8.2-2.05c-.32-1.98-2.59-3.96-4.19-5.03-28.92-19.38-87.19,22.49-116.01,29.67-1.13.28-3.34.6-3.02-.98,7.73-8.36,18.42-14.05,28.78-18.47,13.93-5.94,64.56-24.6,76.94-23.72,13.68.97,50.03,24.13,65.39,31.24,12.23,5.67,25.75,10.36,38.39,15.06l-4.78,4.86-38.36-12.06c-1.13,5.47,1.39,3.53,4.04,5.1,8.85,5.22,18.95,7.78,28.8,10.29l-107.83,68.83,5.14-26.69c-10.06.31-4.58,18.94-12.29,22.59l6.13-28.75-6.59,4.69-5.7,19.94c-1.26-4.48-2.46-8.45-2.18-13.27.19-3.2,6.84-17.65,1.12-17.49-2.62.07-15.15,28.39-36.96,30.77-20.66,2.26-25.47-5.73-29.81-24.65-7.71-1.7-1.94,7.08-5.1,10.27l-9.24-12.31,4.08,18.48c-9.66-.63-6.2-14.62-14.36-14.38-1.48,8.85,2.03,24,0,31.85Z"/>
      <path class="cls-2" d="M401,219.02l-3.98,5.14c-42.16,24.32-81.92,55.23-124.53,78.5-9.21,5.03-7.22,2.17-16.46,4.51-31.8,8.04-24.82,15.35-43.65,32.35-3.47,3.14-36.96,25.95-39.47,26.46-8.75,1.77-15.1-8.24-14.01-16.12l104.89-71.92c3.12-5.03-7.97,3.29-5.13-3.06.47-1.05,9.98-16.35,10.76-16.98,1.34-1.07,25.07-9,31.67-12.49,17.94-9.49,32.32-27,52.01-29.1l-78.75,51.65-.35,3.77L699.34,6.68l10.13,4.13c5.45,10.9-9.82,17.91-17.66,23.46-93.28,66.08-195.13,122.47-290.81,184.75Z"/>
      <path class="cls-1" d="M781.7,312.3c-1.49,3.18-8.83,4.57-9.19,4.97-1.1,1.21-1.16,12.95-2.5,16.12l-2.05-10.26-8.18,10.26c-.92-4.31,6.33-13.75-2.06-12.33l-2.22,14.26-5.99.14-2.04-12.32-2.09,12.32h-6.14s-2.04-8.22-2.04-8.22l-2.37,9.97-7.92.31-1.03-8.26c-2.54-.09-.99,10.83-7.18,8.23l-2.04-10.25-2.32,10-7.96.24c-2.52-2.39,7.01-16.45-2.05-14.38l-2.03,13.03-6.19,1.35c-.79-.68,7.94-26.84.01-18.48.12,3.12-3.51,24.71-10.28,18.48-.84-.77,4.81-14.8,5.54-18.07,8.79-39.57,4.04-77.01.64-116.52-1.76-20.45.35-40.61-8.23-60.58l6.19,1.37,15.35,66.44c-.99-21.95-2.36-44.54-10.96-65.09l3.77-2.73,16.43,78.07c1.47-27.09-5.11-53.85-14.32-79.13l8.4.21,15.18,83.06c6.24,0-7.17-76.68-11.33-83.21,1.74-2.7,5.33-1.16,7.16,1.06,6.03,7.28,11.91,63.98,13.43,77,.46,3.93-1.89,6.01,4.08,5.11-3.19-19.83-3.07-40.23-6.71-60.04-1.63-8.86-5.29-15.58-7.59-23.25-1.58-5.27,7.85-3.33,9.21-.97l15.34,94.54c1.06-32.52-2.99-65.45-12.3-96.54l8.08.11,15.52,94.39c2.74-31.27-4.89-62.95-11.3-93.47l6.18-1.06,17.46,94.51c3.45-2.45,3.16-5.17,2.96-8.91-1.57-29.6-9.04-60.78-18.3-88.69,2.63-2.69,2.03-3.83,5.12-1.05,10.69,9.61,20.36,67.28,21.5,83.29,2.23,31.28-1.05,63.63-.63,94.96ZM730.53,282.43c-23.77,3.43-30.34,40.32,1.51,40.31,32.23,0,26.75-44.39-1.51-40.31Z"/>
      <path class="cls-1" d="M815.2,189.56l2.09-14.36,9.22,16.39,5.16-14.33c4.46.46,2.32,11.36,5.13,12.33,4.6,1.57,4.71-7.85,5.13-10.29,7.21-1.42,2.42,9.75,10.23,8.22l3.1-10.29,3.11,12.34c7.43,2.46,4.69-12.25,7.16-12.34l4.13,8.26,7.14-8.23,5.16,12.27,5.11-12.27,7.21,14.33,5.11-12.27,5.16,14.33,6.15-12.28c7.62,3.31,10.56,73.41,9.23,84.23l-6.12-2.07-2.1,12.34-5.11-14.33-5.16,18.45c-7.09-2.59-1.31-12.28-7.2-16.42-6.08-3.05-3.11,14.1-7.13,14.35-1.76-5.61-2.67-16.41-10.28-16.41l-4.1,20.53c1.52-3.1-5.9-27.76-10.28-22.58l-4.09,22.58c-2.63-6.06-.9-15.47-5.17-20.53-2.03-2.41-2.02-2.54-4.14-.04-3.07,4.08,2.65,14-5.08,12.36-.94-1-.9-19.4-6.15-14.38-2.82,5.61.2,15.41-6.17,18.48-.9-5.57-2-12.44-3.92-17.68-1.04-2.83.74-3.52-4.29-2.86l-6.16,22.58-4.15-20.54h-6.13s-8.21,34.93-8.21,34.93l-6.16-112.99c4.4-.82-.47,11.1,5.08,8.19s1.71-15.74,7.19-18.46c.72,2.98,5,22.27,10.27,18.47Z"/>
      <path class="cls-2" d="M73.79,405.33l-10.25,10.25,8.18-2.03-4.08,6.14,10.25-4.09-8.21,8.18,5.89.34.27,5.88,4.08.96c-12.02,11.97-23.48,24.57-37.17,34.74-5.85,4.35-13.09,12.7-20.31,9.43l16.4-8.22-10.24-.99,24.63-21.56c-2.37-2.1-33.14,22.05-34.9,20.52-3.58-3.12,2.79-4.49,3.88-5.29,7.62-5.6,16.57-9.95,22.81-17.28-5.56-.77-28.6,18.82-30.8,16.41-1.81-1.99-.29-4.81,2.59-6.68,7.68-5.01,17.82-8.99,24.1-15.89-9.65.68-20.33,11.45-27.76,14.34-3.61,1.4-3.51-1.86-3.04-4.05,7.12-2.18,23.29-8.82,21.57-16.46l-17.46,7.19c18.6-12.44,37.35-26.77,59.55-31.84Z"/>
      <polygon class="cls-1" points="603.67 136.18 492.77 169.01 560.49 124.69 603.67 136.18"/>
      <path class="cls-1" d="M381.86,191.65c-1.49,10.49-42.07,23.07-45.13,20.46-1.09-.93,2.32-8.4-4.15-6.09l-.47,11.89c-11.98,6.88-47.7,34.64-60.08,33.33-3.41-.36-5.16-2.94-7.23-5.17,30.27-8.17,56.14-28.16,73.22-54.22,14.58,4.05,28.86-2.15,43.84-.2Z"/>
      <path class="cls-1" d="M264.8,331.36l-5.99,23.32c-16.41,12.04-42.88-7-31-24.37,11.3-16.53,22.11,2.8,36.98,1.04Z"/>
      <path class="cls-1" d="M152.88,356.07l5.05,7.14-70.8,48.26c-1.69,3.32-4.76.55-5.11-1.05-1.71-7.82,20.82-16.73,26.51-20.7,15.21-10.62,28.51-23.87,44.35-33.65Z"/>
      <path class="cls-1" d="M474.29,284.07c3.65-8.29,13.62-24.38,12.01-33.39-1.41-7.84-24.82-26.89-30.49-34.37,7.33,2.72,32.93,9.63,34.42,17.69-3.56,11.47.53,24.05-2.92,35.39-.81,2.65-10.02,17.67-13.02,14.69Z"/>
      <path class="cls-1" d="M784.39,360.09c-3.63.5-2.03-4.66-1.79-6.92,5.09-46.54,9.96-92.57,5.89-139.94-.4-4.66-11.92-50.36-9.21-50.39,3.78,10.44,7.19,21.07,8.96,32.15,2.79,17.47,3.88,41.29,4.47,59.22,1.16,34.99,1.33,72.31-8.33,105.88Z"/>
      <path class="cls-1" d="M464.01,245.04c-18.92,6.7-37.13-15.72-51.25-17.61-7.83-1.05-11.8,5.59-18.56,4.27,5.5-7.51,20.88-8.67,28.8-6.26,4.14,1.26,8.2,6.54,13.72,8.91,3.02,1.29,33.14,5.6,27.29,10.69Z"/>
      <path class="cls-1" d="M244.28,286.14l9.26-28.73,8.19-6.15c2.71,2.18,3.62,3.03,2.68,6.71-.32,1.26-11.04,22.1-11.85,23.12-1.18,1.48-7.94,5.46-8.28,5.05Z"/>
      <path class="cls-1" d="M215.5,302.56c19.63-17.23,20.27-34.38,22.53-58.6.34-3.64-.72-6.64,3.15-9.14,3.83,2.61,3.18,4.95,2.91,8.93-.55,7.99-5.5,27.03-8.51,34.74-1.43,3.67-15.26,28.48-20.07,24.07Z"/>
      <path class="cls-1" d="M320.24,181.37c1.66,1.39-11.59,16.89-13.27,18.55-4.04,3.98-9.59,9.36-15.47,10.19,4.77-6.46,10.62-9.42,15.24-16.55,4.37-6.74,2.2-14.26,13.5-12.19Z"/>
      <path class="cls-1" d="M685.83,164.94c-.72,3.94-4.29,3.39-7.1,4.18-12.33,3.46-26.89,3.4-38.11-3.17l45.2-1.01Z"/>
      <path class="cls-1" d="M689.93,292.32c.99,5.69-1.17,3.47-4.49,4.63-10.27,3.61-21.52,6.58-32.45,5.61l18.4-7.24,18.55-3Z"/>
      <path class="cls-1" d="M285.33,214.25c-9.87,10.53-22.77,17.84-36.97,20.51l36.97-20.51Z"/>
      <polygon class="cls-1" points="751.47 343.72 761.8 372.44 745.41 344.69 751.47 343.72"/>
      <polygon class="cls-1" points="441.42 216.27 427.06 211.16 436.31 204 441.42 216.27"/>
      <polygon class="cls-1" points="776.19 374.5 773.09 382.7 763.89 375.51 776.19 374.5"/>
      <path class="cls-1" d="M513.3,238.9c.3,3.92.56,9.01-4.08,10.26v-10.26s4.08,0,4.08,0Z"/>
      <path class="cls-1" d="M689.94,300.55c-1.23,4.67-6.44,4.28-10.27,4.07,1.23-4.67,6.44-4.28,10.27-4.07Z"/>
      <path d="M459.88,358.06l2.07,22.58c-2.62,3.45-3.73-.24-4.08-3.06-.69-5.53-1.23-11.08-1.93-16.64-.51-4.05.45-2.98,3.94-2.89Z"/>
      <path d="M730.53,282.43c28.26-4.08,33.74,40.31,1.51,40.31-31.85,0-25.28-36.88-1.51-40.31ZM724.23,290.65c-6.43,1.97-9.89,14.59-6.58,20.18,7.26,7.09,28.08,5.93,29.27-5.45-.23-11.88-11.87-18.04-22.69-14.73Z"/>
      <path class="cls-1" d="M724.23,290.65c10.82-3.31,22.46,2.85,22.69,14.73-1.19,11.38-22.01,12.54-29.27,5.45-3.3-5.58.15-18.21,6.58-20.18ZM743.33,302.59c-4.55-.33-8.61,2.62-13.2,2.11-1.54-.17-11.17-7.54-9.37.94,1.78,8.38,25.05,10.03,22.57-3.04Z"/>
      <path d="M743.33,302.59c2.48,13.07-20.8,11.42-22.57,3.04-1.8-8.48,7.83-1.11,9.37-.94,4.59.51,8.66-2.43,13.2-2.11Z"/>
    </g>
  </g>
</svg>